# xmcd
#
# Track frame offsets: 
#        150
#        23312
#        37770
#        48297
#        60502
#        79302
#        89067
#        106580
#        119315
#        138445
#        149942
#
# Disc length: 2271 seconds
#
# Revision: 0
# Processed by: cddbd v1.5.1PL0 Copyright (c) Steve Scherf et al.
# Submitted via: ExactAudioCopy v0.95a5
#
DISCID=8c08dd0b
DTITLE=Nine Below Zero - On the road again
DYEAR=1991
DGENRE=Blues
TTITLE0=On the road again
TTITLE1=No more the Blues
TTITLE2=Kiddio
TTITLE3=Much too much
TTITLE4=Doin´ fine
TTITLE5=Mama talk to your daughter
TTITLE6=Cold cruel heart
TTITLE7=Sweet little Contessa
TTITLE8=Hard goin´ up (twice as hard coming down)
TTITLE9=Sioux´s shoes
TTITLE10=The bird
EXTD=
EXTT0=
EXTT1=
EXTT2=
EXTT3=
EXTT4=
EXTT5=
EXTT6=
EXTT7=
EXTT8=
EXTT9=
EXTT10=
PLAYORDER=
